<mxfile host="app.diagrams.net" modified="2024-07-18T04:29:13.265Z" agent="Mozilla/5.0 (Macintosh; Intel Mac OS X 10_15_7) AppleWebKit/537.36 (KHTML, like Gecko) Chrome/126.0.0.0 Safari/537.36" version="24.7.0" etag="8L634K4m5SqjxTW06axX" type="github">
  <diagram name="第 1 页" id="tmOE7NUKMIHg2Yb3rgT3">
    <mxGraphModel>
      <root>
        <mxCell id="0" />
        <mxCell id="1" parent="0" />
      </root>
    </mxGraphModel>
  </diagram>
</mxfile>
